# xmcd CD database file
#
# Track frame offsets:
#	150
#	3510
#	6776
#	10098
#	13716
#	16805
#	19866
#	22895
#	25942
#	33597
#	37797
#	41495
#	49756
#	59720
#	66717
#	77259
#	86297
#	99364
#	111700
#	123399
#	137797
#	142042
#	154911
#	160915
#	173867
#	176600
#	191346
#
# Disc length: 2622 seconds
#
# Revision: 0
# Processed by: cddbd v1.5.2PL0 Copyright (c) Steve Scherf et al.
# Submitted via: CDex 1.51
#
DISCID=580a3c1b
DTITLE=Dieter Kropp - Les bases de l'harmonica Blues
DYEAR=2009
DGENRE=Blues
TTITLE0=premieres notes do et re
TTITLE1=premieres notes mi et fa
TTITLE2=premieres notes sol et la
TTITLE3=premieres notes si et do
TTITLE4=gammes de do majeur
TTITLE5=Exercice 1 sur octave centrale
TTITLE6=Exercice 1 sur octave centrale
TTITLE7=Exercice 1 sur octave centrale
TTITLE8=c'est parti
TTITLE9=Merrily we roll along
TTITLE10=row, row, row your boat
TTITLE11=This Old Man
TTITLE12=Twinlke, twinlke litle star
TTITLE13=petits flocons de neige
TTITLE14=Sur le mur
TTITLE15=mon chapeau
TTITLE16=Tous les oiseaux sont déjà là
TTITLE17=For he's a jolly good fellow
TTITLE18=Camptown races
TTITLE19=Bound for the Rio Grande
TTITLE20=Sound variations Trou 4 note soufflée
TTITLE21=Go for it
TTITLE22=Figure rythmique
TTITLE23=Checkin-It out
TTITLE24=Bending (trou 4 note aspirée)
TTITLE25=Bluvec bendinges en 12 mesures en sol majeur a
TTITLE26=for he's a joly good fellow style rock
EXTD=YEAR: 2009
EXTT0=
EXTT1=
EXTT2=
EXTT3=
EXTT4=
EXTT5=
EXTT6=
EXTT7=
EXTT8=
EXTT9=
EXTT10=
EXTT11=
EXTT12=
EXTT13=
EXTT14=
EXTT15=
EXTT16=
EXTT17=
EXTT18=
EXTT19=
EXTT20=
EXTT21=
EXTT22=
EXTT23=
EXTT24=
EXTT25=
EXTT26=
PLAYORDER=
